<svg xmlns="http://www.w3.org/2000/svg" xmlns:xlink="http://www.w3.org/1999/xlink" width="2287" height="1707" version="1.1"><g><g><rect width="2287" height="1707" x="0" y="0" fill="#fff" stroke="none"/></g><g><text x="1056.855" y="28.272" fill="#000" stroke="none" dominant-baseline="alphabetic" font-family="sans-serif" font-size="22" font-style="normal" font-weight="normal" text-anchor="start" text-decoration="normal" xml:space="preserve">Get Read Version</text></g><g><g><path fill="none" stroke="#000" stroke-miterlimit="10" stroke-width="1.571" d="M 9.424155749999994 58.3355240925 L 690.9518715524999 58.3355240925 L 690.9518715524999 1698.421349265 L 9.424155749999994 1698.421349265 L 9.424155749999994 58.3355240925" paint-order="fill stroke markers"/></g><g><text x="256.405" y="84.723" fill="#000" stroke="none" dominant-baseline="alphabetic" font-family="sans-serif" font-size="11pt" font-style="normal" font-weight="bold" text-anchor="start" text-decoration="normal" xml:space="preserve">Client</text><text x="298.073" y="84.723" fill="#000" stroke="none" dominant-baseline="alphabetic" font-family="sans-serif" font-size="11pt" font-style="normal" font-weight="normal" text-anchor="start" text-decoration="normal" xml:space="preserve">(NativeAPI.actor.cpp)</text></g><g><path fill="none" stroke="#000" stroke-miterlimit="10" stroke-width="1.571" d="M 788.4744715906251 58.3355240925 L 1738.80403839875 58.3355240925 L 1738.80403839875 1698.421349265 L 788.4744715906251 1698.421349265 L 788.4744715906251 58.3355240925" paint-order="fill stroke markers"/></g><g><text x="1134.14" y="84.723" fill="#000" stroke="none" dominant-baseline="alphabetic" font-family="sans-serif" font-size="11pt" font-style="normal" font-weight="bold" text-anchor="start" text-decoration="normal" xml:space="preserve">GRVProxy</text><text x="1208.07" y="84.723" fill="#000" stroke="none" dominant-baseline="alphabetic" font-family="sans-serif" font-size="11pt" font-style="normal" font-weight="normal" text-anchor="start" text-decoration="normal" xml:space="preserve">(GrvProxyServer.actor.cpp)</text></g><g><path fill="none" stroke="#000" stroke-miterlimit="10" stroke-width="1.571" d="M 1906.3388454681253 58.3355240925 L 2152.840922610625 58.3355240925 L 2152.840922610625 1698.421349265 L 1906.3388454681253 1698.421349265 L 1906.3388454681253 58.3355240925" paint-order="fill stroke markers"/></g><g><text x="1922.462" y="84.723" fill="#000" stroke="none" dominant-baseline="alphabetic" font-family="sans-serif" font-size="11pt" font-style="normal" font-weight="bold" text-anchor="start" text-decoration="normal" xml:space="preserve">Master</text><text x="1970.817" y="84.723" fill="#000" stroke="none" dominant-baseline="alphabetic" font-family="sans-serif" font-size="11pt" font-style="normal" font-weight="normal" text-anchor="start" text-decoration="normal" xml:space="preserve">(masterserver.actor.cpp)</text></g></g><g><path fill="none" stroke="#000" stroke-dasharray="14.499 6.283" stroke-miterlimit="10" stroke-width="1.571" d="M 135.75136619625 153.990704955 L 135.75136619625 1698.421349265" paint-order="fill stroke markers"/><path fill="none" stroke="#000" stroke-dasharray="14.499 6.283" stroke-miterlimit="10" stroke-width="1.571" d="M 357.830835916875 153.990704955 L 357.830835916875 1698.421349265" paint-order="fill stroke markers"/><path fill="none" stroke="#000" stroke-dasharray="14.499 6.283" stroke-miterlimit="10" stroke-width="1.571" d="M 572.267483371875 153.990704955 L 572.267483371875 1698.421349265" paint-order="fill stroke markers"/><path fill="none" stroke="#000" stroke-dasharray="14.499 6.283" stroke-miterlimit="10" stroke-width="1.571" d="M 925.927170318125 153.990704955 L 925.927170318125 1698.421349265" paint-order="fill stroke markers"/><path fill="none" stroke="#000" stroke-dasharray="14.499 6.283" stroke-miterlimit="10" stroke-width="1.571" d="M 1295.9277071431252 153.990704955 L 1295.9277071431252 1698.421349265" paint-order="fill stroke markers"/><path fill="none" stroke="#000" stroke-dasharray="14.499 6.283" stroke-miterlimit="10" stroke-width="1.571" d="M 1623.4668181868751 153.990704955 L 1623.4668181868751 1698.421349265" paint-order="fill stroke markers"/><path fill="none" stroke="#000" stroke-dasharray="14.499 6.283" stroke-miterlimit="10" stroke-width="1.571" d="M 2029.5898840393752 153.990704955 L 2029.5898840393752 1698.421349265" paint-order="fill stroke markers"/></g><g><path fill="none" stroke="none"/><g><path fill="#fff" stroke="#000" stroke-miterlimit="10" stroke-width="3.016" d="M 18.848311499999994 103.28874702000002 L 252.65442089249999 103.28874702000002 L 252.65442089249999 153.990704955 L 18.848311499999994 153.990704955 L 18.848311499999994 103.28874702000002 Z" paint-order="fill stroke markers"/></g><g><text x="39.299" y="135.142" fill="#000" stroke="none" dominant-baseline="alphabetic" font-family="sans-serif" font-size="11pt" font-style="normal" font-weight="normal" text-anchor="start" text-decoration="normal" xml:space="preserve">Transaction::getReadVersion</text></g><path fill="none" stroke="none"/><g><path fill="#fff" stroke="#000" stroke-miterlimit="10" stroke-width="3.016" d="M 271.5027323925 103.28874702000002 L 444.15893944124997 103.28874702000002 L 444.15893944124997 153.990704955 L 271.5027323925 153.990704955 L 271.5027323925 103.28874702000002 Z" paint-order="fill stroke markers"/></g><g><text x="291.953" y="135.142" fill="#000" stroke="none" dominant-baseline="alphabetic" font-family="sans-serif" font-size="11pt" font-style="normal" font-weight="normal" text-anchor="start" text-decoration="normal" xml:space="preserve">readVersionBatcher</text></g><path fill="none" stroke="none"/><g><path fill="#fff" stroke="#000" stroke-miterlimit="10" stroke-width="3.016" d="M 463.00725094124994 103.28874702000002 L 681.5277158024999 103.28874702000002 L 681.5277158024999 153.990704955 L 463.00725094124994 153.990704955 L 463.00725094124994 103.28874702000002 Z" paint-order="fill stroke markers"/></g><g><text x="483.458" y="135.142" fill="#000" stroke="none" dominant-baseline="alphabetic" font-family="sans-serif" font-size="11pt" font-style="normal" font-weight="normal" text-anchor="start" text-decoration="normal" xml:space="preserve">getConsistentReadVersion</text></g><path fill="none" stroke="none"/><g><path fill="#fff" stroke="#000" stroke-miterlimit="10" stroke-width="3.016" d="M 797.898627340625 103.28874702000002 L 1053.955713295625 103.28874702000002 L 1053.955713295625 153.990704955 L 797.898627340625 153.990704955 L 797.898627340625 103.28874702000002 Z" paint-order="fill stroke markers"/></g><g><text x="818.349" y="135.142" fill="#000" stroke="none" dominant-baseline="alphabetic" font-family="sans-serif" font-size="11pt" font-style="normal" font-weight="normal" text-anchor="start" text-decoration="normal" xml:space="preserve">queueGetReadVersionRequests</text></g><path fill="none" stroke="none"/><g><path fill="#fff" stroke="#000" stroke-miterlimit="10" stroke-width="3.016" d="M 1216.2829532281253 103.28874702000002 L 1375.5724610581253 103.28874702000002 L 1375.5724610581253 153.990704955 L 1216.2829532281253 153.990704955 L 1216.2829532281253 103.28874702000002 Z" paint-order="fill stroke markers"/></g><g><text x="1236.733" y="135.142" fill="#000" stroke="none" dominant-baseline="alphabetic" font-family="sans-serif" font-size="11pt" font-style="normal" font-weight="normal" text-anchor="start" text-decoration="normal" xml:space="preserve">transactionStarter</text></g><path fill="none" stroke="none"/><g><path fill="#fff" stroke="#000" stroke-miterlimit="10" stroke-width="3.016" d="M 1517.5537537250002 103.28874702000002 L 1729.3798826487503 103.28874702000002 L 1729.3798826487503 153.990704955 L 1517.5537537250002 153.990704955 L 1517.5537537250002 103.28874702000002 Z" paint-order="fill stroke markers"/></g><g><text x="1538.004" y="135.142" fill="#000" stroke="none" dominant-baseline="alphabetic" font-family="sans-serif" font-size="11pt" font-style="normal" font-weight="normal" text-anchor="start" text-decoration="normal" xml:space="preserve">getLiveCommittedVersion</text></g><path fill="none" stroke="none"/><g><path fill="#fff" stroke="#000" stroke-miterlimit="10" stroke-width="3.016" d="M 1915.7630012181253 103.28874702000002 L 2143.416766860625 103.28874702000002 L 2143.416766860625 153.990704955 L 1915.7630012181253 153.990704955 L 1915.7630012181253 103.28874702000002 Z" paint-order="fill stroke markers"/></g><g><text x="1936.213" y="135.142" fill="#000" stroke="none" dominant-baseline="alphabetic" font-family="sans-serif" font-size="11pt" font-style="normal" font-weight="normal" text-anchor="start" text-decoration="normal" xml:space="preserve">serveLiveCommittedVersion</text></g></g><g><g><text x="193.837" y="208.651" fill="#000" stroke="none" dominant-baseline="alphabetic" font-family="sans-serif" font-size="11pt" font-style="normal" font-weight="normal" text-anchor="start" text-decoration="normal" xml:space="preserve">VersionRequest</text></g><g><path fill="none" stroke="#000" stroke-miterlimit="10" stroke-width="1.571" d="M 135.75136619625 216.19013290500004 L 342.312392781875 216.19013290500004" paint-order="fill stroke markers"/><g><path fill="#000" stroke="none" d="M 342.123909666875 208.33666978000005 L 357.830835916875 216.19013290500004 L 342.123909666875 224.04359603000003 Z" paint-order="stroke fill markers" transform="translate(357.830835916875,216.19013290500004) translate(-357.830835916875,-216.19013290500004)"/></g></g><path fill="#fff" stroke="#000" stroke-miterlimit="10" stroke-width="1.571" d="M 238.05941075437502 295.353041205 L 477.602261079375 295.353041205 L 477.602261079375 338.704157655 L 238.05941075437502 338.704157655 L 238.05941075437502 295.353041205" paint-order="fill stroke markers"/><g><text x="264.447" y="321.741" fill="#000" stroke="none" dominant-baseline="alphabetic" font-family="sans-serif" font-size="11pt" font-style="normal" font-weight="normal" text-anchor="start" text-decoration="normal" xml:space="preserve">Batch read version requests</text></g><path fill="#fff" stroke="#000" stroke-miterlimit="10" stroke-width="1.571" d="M 357.830835916875 416.92465038 L 367.254991666875 416.92465038 M 367.254991666875 395.249092155 L 538.4110217981249 395.249092155 L 555.374502148125 412.212572505 L 555.374502148125 438.60020860500003 L 367.254991666875 438.60020860500003 L 367.254991666875 395.249092155 M 538.4110217981249 395.249092155 L 538.4110217981249 412.212572505 L 555.374502148125 412.212572505" paint-order="fill stroke markers"/><g><text x="393.643" y="421.637" fill="green" stroke="none" dominant-baseline="alphabetic" font-family="sans-serif" font-size="11pt" font-style="italic" font-weight="normal" text-anchor="start" text-decoration="normal" xml:space="preserve">TransactionAttachID</text></g><g><path fill="none" stroke="#000" stroke-miterlimit="10" stroke-width="1.571" d="M 357.830835916875 491.37548080500005 L 556.749040236875 491.37548080500005" paint-order="fill stroke markers"/><g><path fill="#000" stroke="none" d="M 556.5605571218749 483.52201768000003 L 572.267483371875 491.37548080500005 L 556.5605571218749 499.22894393000007 Z" paint-order="stroke fill markers" transform="translate(572.267483371875,491.37548080500005) translate(-572.267483371875,-491.37548080500005)"/></g></g><path fill="#fff" stroke="#000" stroke-miterlimit="10" stroke-width="1.571" d="M 572.267483371875 541.3235062800001 L 581.6916391218749 541.3235062800001 M 581.6916391218749 519.6479480550001 L 661.6977669093749 519.6479480550001 L 678.6612472593749 536.6114284050002 L 678.6612472593749 562.9990645050001 L 581.6916391218749 562.9990645050001 L 581.6916391218749 519.6479480550001 M 661.6977669093749 519.6479480550001 L 661.6977669093749 536.6114284050002 L 678.6612472593749 536.6114284050002" paint-order="fill stroke markers"/><g><text x="608.079" y="546.036" fill="#00f" stroke="none" dominant-baseline="alphabetic" font-family="sans-serif" font-size="11pt" font-style="normal" font-weight="normal" text-anchor="start" text-decoration="normal" xml:space="preserve">Before</text></g><g><text x="666.125" y="608.235" fill="#000" stroke="none" dominant-baseline="alphabetic" font-family="sans-serif" font-size="11pt" font-style="normal" font-weight="normal" text-anchor="start" text-decoration="normal" xml:space="preserve">GetReadVersionRequest</text></g><g><path fill="none" stroke="#000" stroke-miterlimit="10" stroke-width="1.571" d="M 572.267483371875 615.7743367050001 L 910.408727183125 615.7743367050001" paint-order="fill stroke markers"/><g><path fill="#000" stroke="none" d="M 910.220244068125 607.9208735800001 L 925.927170318125 615.7743367050001 L 910.220244068125 623.6277998300001 Z" paint-order="stroke fill markers" transform="translate(925.927170318125,615.7743367050001) translate(-925.927170318125,-615.7743367050001)"/></g></g><path fill="#fff" stroke="#000" stroke-miterlimit="10" stroke-width="1.571" d="M 806.155745155625 694.9372450050002 L 1045.698595480625 694.9372450050002 L 1045.698595480625 738.2883614550002 L 806.155745155625 738.2883614550002 L 806.155745155625 694.9372450050002" paint-order="fill stroke markers"/><g><text x="832.543" y="721.325" fill="#000" stroke="none" dominant-baseline="alphabetic" font-family="sans-serif" font-size="11pt" font-style="normal" font-weight="normal" text-anchor="start" text-decoration="normal" xml:space="preserve">Batch read version requests</text></g><path fill="#fff" stroke="#000" stroke-miterlimit="10" stroke-width="1.571" d="M 925.927170318125 814.0585736850002 L 935.351326068125 814.0585736850002 M 935.351326068125 794.8332959550002 L 1269.540071043125 794.8332959550002 L 1286.503551393125 811.7967763050002 L 1286.503551393125 833.2838514150002 L 935.351326068125 833.2838514150002 L 935.351326068125 794.8332959550002 M 1269.540071043125 794.8332959550002 L 1269.540071043125 811.7967763050002 L 1286.503551393125 811.7967763050002" paint-order="fill stroke markers"/><g><text x="961.739" y="817.828" fill="#add8e6" stroke="none" dominant-baseline="alphabetic" font-family="sans-serif" font-size="8.8pt" font-style="normal" font-weight="normal" text-anchor="start" text-decoration="normal" xml:space="preserve">GrvProxyServer.queueTransactionStartRequests.Before</text></g><g><path fill="none" stroke="#000" stroke-miterlimit="10" stroke-width="1.571" d="M 925.927170318125 886.0591236150002 L 1280.409264008125 886.0591236150002" paint-order="fill stroke markers"/><g><path fill="#000" stroke="none" d="M 1280.2207808931253 878.2056604900002 L 1295.9277071431252 886.0591236150002 L 1280.2207808931253 893.9125867400002 Z" paint-order="stroke fill markers" transform="translate(1295.9277071431252,886.0591236150002) translate(-1295.9277071431252,-886.0591236150002)"/></g></g><path fill="#fff" stroke="#000" stroke-miterlimit="10" stroke-width="1.571" d="M 1295.9277071431252 936.0071490900002 L 1305.3518628931251 936.0071490900002 M 1305.3518628931251 914.3315908650002 L 1476.507893024375 914.3315908650002 L 1493.4713733743752 931.2950712150002 L 1493.4713733743752 957.6827073150002 L 1305.3518628931251 957.6827073150002 L 1305.3518628931251 914.3315908650002 M 1476.507893024375 914.3315908650002 L 1476.507893024375 931.2950712150002 L 1493.4713733743752 931.2950712150002" paint-order="fill stroke markers"/><g><text x="1331.739" y="940.719" fill="green" stroke="none" dominant-baseline="alphabetic" font-family="sans-serif" font-size="11pt" font-style="italic" font-weight="normal" text-anchor="start" text-decoration="normal" xml:space="preserve">TransactionAttachID</text></g><path fill="#fff" stroke="#000" stroke-miterlimit="10" stroke-width="1.571" d="M 1295.9277071431252 1007.6307327900001 L 1305.3518628931251 1007.6307327900001 M 1305.3518628931251 985.9551745650001 L 1597.079182086875 985.9551745650001 L 1614.0426624368752 1002.9186549150002 L 1614.0426624368752 1029.3062910150002 L 1305.3518628931251 1029.3062910150002 L 1305.3518628931251 985.9551745650001 M 1597.079182086875 985.9551745650001 L 1597.079182086875 1002.9186549150002 L 1614.0426624368752 1002.9186549150002" paint-order="fill stroke markers"/><g><text x="1331.739" y="1012.343" fill="#00f" stroke="none" dominant-baseline="alphabetic" font-family="sans-serif" font-size="11pt" font-style="normal" font-weight="normal" text-anchor="start" text-decoration="normal" xml:space="preserve">AskLiveCommittedVersionFromMaster</text></g><g><path fill="none" stroke="#000" stroke-miterlimit="10" stroke-width="1.571" d="M 1295.9277071431252 1082.0815632150002 L 1607.948375051875 1082.0815632150002" paint-order="fill stroke markers"/><g><path fill="#000" stroke="none" d="M 1607.7598919368752 1074.2281000900002 L 1623.4668181868751 1082.0815632150002 L 1607.7598919368752 1089.9350263400001 Z" paint-order="stroke fill markers" transform="translate(1623.4668181868751,1082.0815632150002) translate(-1623.4668181868751,-1082.0815632150002)"/></g></g><path fill="#fff" stroke="#000" stroke-miterlimit="10" stroke-width="1.571" d="M 1623.4668181868751 1132.02958869 L 1632.890973936875 1132.02958869 M 1632.890973936875 1110.354030465 L 1787.926398599375 1110.354030465 L 1804.889878949375 1127.317510815 L 1804.889878949375 1153.7051469150001 L 1632.890973936875 1153.7051469150001 L 1632.890973936875 1110.354030465 M 1787.926398599375 1110.354030465 L 1787.926398599375 1127.317510815 L 1804.889878949375 1127.317510815" paint-order="fill stroke markers"/><g><text x="1659.279" y="1136.742" fill="#00f" stroke="none" dominant-baseline="alphabetic" font-family="sans-serif" font-size="11pt" font-style="normal" font-weight="normal" text-anchor="start" text-decoration="normal" xml:space="preserve">confirmEpochLive</text></g><g><text x="1710.223" y="1198.941" fill="#000" stroke="none" dominant-baseline="alphabetic" font-family="sans-serif" font-size="11pt" font-style="normal" font-weight="normal" text-anchor="start" text-decoration="normal" xml:space="preserve">GetRawCommittedVersionRequest</text></g><g><path fill="none" stroke="#000" stroke-miterlimit="10" stroke-width="1.571" d="M 1623.4668181868751 1206.4804191150001 L 2014.071440904375 1206.4804191150001" paint-order="fill stroke markers"/><g><path fill="#000" stroke="none" d="M 2013.8829577893753 1198.6269559900002 L 2029.5898840393752 1206.4804191150001 L 2013.8829577893753 1214.33388224 Z" paint-order="stroke fill markers" transform="translate(2029.5898840393752,1206.4804191150001) translate(-2029.5898840393752,-1206.4804191150001)"/></g></g><path fill="#fff" stroke="#000" stroke-miterlimit="10" stroke-width="1.571" d="M 2029.5898840393752 1256.42844459 L 2039.0140397893751 1256.42844459 M 2039.0140397893751 1234.752886365 L 2251.5665542956253 1234.752886365 L 2268.530034645625 1251.716366715 L 2268.530034645625 1278.104002815 L 2039.0140397893751 1278.104002815 L 2039.0140397893751 1234.752886365 M 2251.5665542956253 1234.752886365 L 2251.5665542956253 1251.716366715 L 2268.530034645625 1251.716366715" paint-order="fill stroke markers"/><g><text x="2065.402" y="1261.141" fill="#00f" stroke="none" dominant-baseline="alphabetic" font-family="sans-serif" font-size="11pt" font-style="normal" font-weight="normal" text-anchor="start" text-decoration="normal" xml:space="preserve">GetRawCommittedVersion</text></g><g><text x="1718.983" y="1323.34" fill="#000" stroke="none" dominant-baseline="alphabetic" font-family="sans-serif" font-size="11pt" font-style="normal" font-weight="normal" text-anchor="start" text-decoration="normal" xml:space="preserve">GetRawCommittedVersionReply</text></g><g><path fill="none" stroke="#000" stroke-dasharray="7.539" stroke-miterlimit="10" stroke-width="1.571" d="M 2029.5898840393752 1330.879275015 L 1638.9852613218752 1330.879275015" paint-order="fill stroke markers"/><g><path fill="#000" stroke="none" d="M 1639.173744436875 1323.02581189 L 1623.4668181868751 1330.879275015 L 1639.173744436875 1338.73273814 Z" paint-order="stroke fill markers" transform="translate(1623.4668181868751,1330.879275015) translate(-1623.4668181868751,-1330.879275015)"/></g></g><path fill="#fff" stroke="#000" stroke-miterlimit="10" stroke-width="1.571" d="M 1623.4668181868751 1380.82730049 L 1632.890973936875 1380.82730049 M 1632.890973936875 1359.151742265 L 1700.380011880625 1359.151742265 L 1717.343492230625 1376.115222615 L 1717.343492230625 1402.502858715 L 1632.890973936875 1402.502858715 L 1632.890973936875 1359.151742265 M 1700.380011880625 1359.151742265 L 1700.380011880625 1376.115222615 L 1717.343492230625 1376.115222615" paint-order="fill stroke markers"/><g><text x="1659.279" y="1385.539" fill="#00f" stroke="none" dominant-baseline="alphabetic" font-family="sans-serif" font-size="11pt" font-style="normal" font-weight="normal" text-anchor="start" text-decoration="normal" xml:space="preserve">After</text></g><g><text x="1023.655" y="1447.739" fill="#000" stroke="none" dominant-baseline="alphabetic" font-family="sans-serif" font-size="11pt" font-style="normal" font-weight="normal" text-anchor="start" text-decoration="normal" xml:space="preserve">GetReadVersionReply</text></g><g><path fill="none" stroke="#000" stroke-dasharray="7.539" stroke-miterlimit="10" stroke-width="1.571" d="M 1623.4668181868751 1455.278130915 L 587.785926506875 1455.278130915" paint-order="fill stroke markers"/><g><path fill="#000" stroke="none" d="M 587.974409621875 1447.42466779 L 572.267483371875 1455.278130915 L 587.974409621875 1463.13159404 Z" paint-order="stroke fill markers" transform="translate(572.267483371875,1455.278130915) translate(-572.267483371875,-1455.278130915)"/></g></g><path fill="#fff" stroke="#000" stroke-miterlimit="10" stroke-width="1.571" d="M 572.267483371875 1505.22615639 L 581.6916391218749 1505.22615639 M 581.6916391218749 1483.5505981649999 L 649.1806770656249 1483.5505981649999 L 666.1441574156249 1500.514078515 L 666.1441574156249 1526.901714615 L 581.6916391218749 1526.901714615 L 581.6916391218749 1483.5505981649999 M 649.1806770656249 1483.5505981649999 L 649.1806770656249 1500.514078515 L 666.1441574156249 1500.514078515" paint-order="fill stroke markers"/><g><text x="608.079" y="1509.938" fill="#00f" stroke="none" dominant-baseline="alphabetic" font-family="sans-serif" font-size="11pt" font-style="normal" font-weight="normal" text-anchor="start" text-decoration="normal" xml:space="preserve">After</text></g><g><text x="390.837" y="1572.138" fill="#000" stroke="none" dominant-baseline="alphabetic" font-family="sans-serif" font-size="11pt" font-style="normal" font-weight="normal" text-anchor="start" text-decoration="normal" xml:space="preserve">GetReadVersionReply</text></g><g><path fill="none" stroke="#000" stroke-dasharray="7.539" stroke-miterlimit="10" stroke-width="1.571" d="M 572.267483371875 1579.676986815 L 373.349279051875 1579.676986815" paint-order="fill stroke markers"/><g><path fill="#000" stroke="none" d="M 373.537762166875 1571.82352369 L 357.830835916875 1579.676986815 L 373.537762166875 1587.53044994 Z" paint-order="stroke fill markers" transform="translate(357.830835916875,1579.676986815) translate(-357.830835916875,-1579.676986815)"/></g></g><g><text x="172.578" y="1624.913" fill="#000" stroke="none" dominant-baseline="alphabetic" font-family="sans-serif" font-size="11pt" font-style="normal" font-weight="normal" text-anchor="start" text-decoration="normal" xml:space="preserve">GetReadVersionReply</text></g><g><path fill="none" stroke="#000" stroke-dasharray="7.539" stroke-miterlimit="10" stroke-width="1.571" d="M 357.830835916875 1632.452259015 L 151.26980933125 1632.452259015" paint-order="fill stroke markers"/><g><path fill="#000" stroke="none" d="M 151.45829244625 1624.59879589 L 135.75136619625 1632.452259015 L 151.45829244625 1640.30572214 Z" paint-order="stroke fill markers" transform="translate(135.75136619625,1632.452259015) translate(-135.75136619625,-1632.452259015)"/></g></g><g><path fill="none" stroke="#000" stroke-miterlimit="10" stroke-width="2.693" d="M 228.635255004375 244.46260015500002 L 487.02641682937497 244.46260015500002 L 487.02641682937497 366.976624905 L 228.635255004375 366.976624905 L 228.635255004375 244.46260015500002 Z" paint-order="fill stroke markers"/><path fill="#fff" stroke="#000" stroke-miterlimit="10" stroke-width="2.693" d="M 228.635255004375 244.46260015500002 L 228.635255004375 267.08057395500003 L 291.656096754375 267.08057395500003 L 302.965083654375 255.77158705500003 L 302.965083654375 244.46260015500002 L 228.635255004375 244.46260015500002" paint-order="fill stroke markers"/><text x="247.484" y="259.541" fill="#000" stroke="none" dominant-baseline="alphabetic" font-family="sans-serif" font-size="8.8pt" font-style="normal" font-weight="bold" text-anchor="start" text-decoration="normal" xml:space="preserve">loop</text><text x="321.813" y="259.541" fill="#000" stroke="none" dominant-baseline="alphabetic" font-family="sans-serif" font-size="8.8pt" font-style="normal" font-weight="bold" text-anchor="start" text-decoration="normal" xml:space="preserve">[Batch requests]</text></g><g><path fill="none" stroke="#000" stroke-miterlimit="10" stroke-width="2.693" d="M 796.7315894056251 644.0468039550002 L 1055.122751230625 644.0468039550002 L 1055.122751230625 766.5608287050002 L 796.7315894056251 766.5608287050002 L 796.7315894056251 644.0468039550002 Z" paint-order="fill stroke markers"/><path fill="#fff" stroke="#000" stroke-miterlimit="10" stroke-width="2.693" d="M 796.7315894056251 644.0468039550002 L 796.7315894056251 666.6647777550002 L 859.7524311556251 666.6647777550002 L 871.0614180556252 655.3557908550002 L 871.0614180556252 644.0468039550002 L 796.7315894056251 644.0468039550002" paint-order="fill stroke markers"/><text x="815.58" y="659.125" fill="#000" stroke="none" dominant-baseline="alphabetic" font-family="sans-serif" font-size="8.8pt" font-style="normal" font-weight="bold" text-anchor="start" text-decoration="normal" xml:space="preserve">loop</text><text x="889.91" y="659.125" fill="#000" stroke="none" dominant-baseline="alphabetic" font-family="sans-serif" font-size="8.8pt" font-style="normal" font-weight="bold" text-anchor="start" text-decoration="normal" xml:space="preserve">[Batch requests]</text></g></g></g></svg>