<svg xmlns="http://www.w3.org/2000/svg" xmlns:xlink="http://www.w3.org/1999/xlink" width="201" height="98" version="1.1" viewBox="0 0 201 98"><title>Artboard</title><desc>Created with Sketch.</desc><defs><polygon id="path-1" points=".028 27.281 .028 21.974 42.145 21.974 42.145 .41 83.991 4.603 83.991 21.974 126.436 21.974 126.436 .41 200.862 8.197 200.862 27.281"/><polygon id="path-3" points=".028 28.089 42.145 21.916 42.145 .351 83.991 10.721 83.991 28.093 126.436 21.916 126.436 .351 200.862 19.108 200.862 38.277 126.436 27.906 83.991 33.484 42.145 27.906 .028 33.481"/><polygon id="path-5" points=".299 34.512 42.743 21.632 42.743 .067 117.169 30.617 117.169 49.187 42.743 28.222 .299 39.903"/></defs><g id="Artboard" fill="none" fill-rule="evenodd" stroke="none" stroke-width="1"><g id="fdb-Logo"><g id="Group" transform="translate(0.000000, 69.743724)"><g id="Clipped"><mask id="mask-2" fill="#fff"><use xlink:href="#path-1"/></mask><polygon id="Path" fill="#0073E0" fill-rule="nonzero" points=".028 27.321 200.89 27.321 200.89 .372 .028 .372" mask="url(#mask-2)"/></g></g><g id="Group" transform="translate(0.000000, 34.871862)"><g id="Clipped"><mask id="mask-4" fill="#fff"><use xlink:href="#path-3"/></mask><polygon id="Path" fill="#289DFC" fill-rule="nonzero" points=".028 38.313 200.89 38.313 200.89 .316 .028 .316" mask="url(#mask-4)"/></g></g><g id="Group" transform="translate(83.692469, 0.000000)"><g id="Clipped"><mask id="mask-6" fill="#fff"><use xlink:href="#path-5"/></mask><polygon id="Path" fill="#9ACEFE" fill-rule="nonzero" points=".251 49.193 117.197 49.193 117.197 .037 .251 .037" mask="url(#mask-6)"/></g></g></g></g></svg>